{
  "source": "C:\\Users\\Peter\\Desktop\\stuff\\MIUN\\quantitative_research\\video_compression\\videos\\BVI-HD\\BVI-HD_CDVL_videos\\ORIG\\Hamster_1920x1080_60fps.mp4",
  "output": "C:\\Users\\Peter\\Desktop\\stuff\\MIUN\\quantitative_research\\video_compression\\compressed_videos\\BVI-HD\\h264\\2\\Hamster_1920x1080_60fps_h264.mp4",
  "codec": "h264",
  "ok": "Input #0, mov,mp4,m4a,3gp,3g2,mj2, from 'C:\\Users\\Peter\\Desktop\\stuff\\MIUN\\quantitative_research\\video_compression\\videos\\BVI-HD\\BVI-HD_CDVL_videos\\ORIG\\Hamster_1920x1080_60fps.mp4':\n  Metadata:\n    major_brand     : isom\n    minor_version   : 512\n    compatible_brands: isomiso2avc1mp41\n    encoder         : Lavf54.28.101\n  Duration: 00:00:05.00, start: 0.000000, bitrate: 208485 kb/s\n  Stream #0:0[0x1](und): Video: h264 (High 4:4:4 Predictive) (avc1 / 0x31637661), yuv420p(progressive), 1920x1080, 208481 kb/s, 60 fps, 60 tbr, 60 tbn (default)\n    Metadata:\n      handler_name    : VideoHandler\n      vendor_id       : [0][0][0][0]\n[out#0/mp4 @ 000001ce590aee80] Codec AVOption b:a (set bitrate (in bits/s)) has not been used for any stream. The most likely reason is either wrong type (e.g. a video option with no video streams) or that it is a private option of some decoder which was not actually used for any stream.\nStream mapping:\n  Stream #0:0 -> #0:0 (h264 (native) -> h264 (libx264))\nPress [q] to stop, [?] for help\n[libx264 @ 000001ce5979ac00] using cpu capabilities: MMX2 SSE2Fast SSSE3 SSE4.2 AVX FMA3 BMI2 AVX2\n[libx264 @ 000001ce5979ac00] profile High, level 5.0, 4:2:0, 8-bit\n[libx264 @ 000001ce5979ac00] 264 - core 165 r3222 b35605a - H.264/MPEG-4 AVC codec - Copyleft 2003-2025 - http://www.videolan.org/x264.html - options: cabac=1 ref=5 deblock=1:0:0 analyse=0x3:0x113 me=hex subme=8 psy=1 psy_rd=1.00:0.00 mixed_ref=1 me_range=16 chroma_me=1 trellis=2 8x8dct=1 cqm=0 deadzone=21,11 fast_pskip=1 chroma_qp_offset=-2 threads=18 lookahead_threads=3 sliced_threads=0 nr=0 decimate=1 interlaced=0 bluray_compat=0 constrained_intra=0 bframes=3 b_pyramid=2 b_adapt=1 b_bias=0 direct=3 weightb=1 open_gop=0 weightp=2 keyint=250 keyint_min=25 scenecut=40 intra_refresh=0 rc_lookahead=50 rc=cbr mbtree=1 bitrate=2000 ratetol=1.0 qcomp=0.60 qpmin=0 qpmax=69 qpstep=4 vbv_maxrate=2000 vbv_bufsize=2000 nal_hrd=none filler=0 ip_ratio=1.40 aq=1:1.00\nOutput #0, mp4, to 'C:\\Users\\Peter\\Desktop\\stuff\\MIUN\\quantitative_research\\video_compression\\compressed_videos\\BVI-HD\\h264\\2\\Hamster_1920x1080_60fps_h264.mp4':\n  Metadata:\n    major_brand     : isom\n    minor_version   : 512\n    compatible_brands: isomiso2avc1mp41\n    encoder         : Lavf62.3.100\n  Stream #0:0(und): Video: h264 (avc1 / 0x31637661), yuv420p(tv, progressive), 1920x1080, q=2-31, 2000 kb/s, 60 fps, 15360 tbn (default)\n    Metadata:\n      encoder         : Lavc62.11.100 libx264\n      handler_name    : VideoHandler\n      vendor_id       : [0][0][0][0]\n    Side data:\n      cpb: bitrate max/min/avg: 2000000/0/2000000 buffer size: 2000000 vbv_delay: N/A\nframe=    0 fps=0.0 q=0.0 size=       0KiB time=N/A bitrate=N/A speed=N/A elapsed=0:00:01.33    \nframe=    0 fps=0.0 q=0.0 size=       0KiB time=N/A bitrate=N/A speed=N/A elapsed=0:00:01.98    \nframe=    0 fps=0.0 q=0.0 size=       0KiB time=N/A bitrate=N/A speed=N/A elapsed=0:00:02.68    \nframe=    0 fps=0.0 q=0.0 size=       0KiB time=N/A bitrate=N/A speed=N/A elapsed=0:00:03.52    \nframe=   20 fps=4.8 q=40.0 size=       0KiB time=00:00:00.23 bitrate=   1.6kbits/s speed=0.0557x elapsed=0:00:04.18    \nframe=   40 fps=8.3 q=40.0 size=       0KiB time=00:00:00.63 bitrate=   0.6kbits/s speed=0.131x elapsed=0:00:04.82    \nframe=   60 fps= 11 q=39.0 size=       0KiB time=00:00:00.96 bitrate=   0.4kbits/s speed=0.18x elapsed=0:00:05.36    \nframe=   76 fps= 13 q=40.0 size=     256KiB time=00:00:01.23 bitrate=1700.7kbits/s speed=0.208x elapsed=0:00:05.92    \nframe=  100 fps= 15 q=41.0 size=     256KiB time=00:00:01.51 bitrate=1383.0kbits/s speed=0.231x elapsed=0:00:06.55    \nframe=  121 fps= 17 q=41.0 size=     256KiB time=00:00:01.98 bitrate=1057.6kbits/s speed=0.271x elapsed=0:00:07.30    \nframe=  144 fps= 18 q=41.0 size=     512KiB time=00:00:02.30 bitrate=1823.8kbits/s speed=0.288x elapsed=0:00:07.98    \nframe=  168 fps= 19 q=41.0 size=     512KiB time=00:00:02.70 bitrate=1553.6kbits/s speed=0.31x elapsed=0:00:08.70    \nframe=  185 fps= 20 q=41.0 size=     512KiB time=00:00:03.05 bitrate=1375.3kbits/s speed=0.324x elapsed=0:00:09.41    \nframe=  204 fps= 20 q=41.0 size=     768KiB time=00:00:03.30 bitrate=1906.6kbits/s speed=0.325x elapsed=0:00:10.15    \nframe=  232 fps= 21 q=43.0 size=     768KiB time=00:00:03.73 bitrate=1685.3kbits/s speed=0.339x elapsed=0:00:11.02    \nframe=  259 fps= 22 q=43.0 size=    1024KiB time=00:00:04.13 bitrate=2029.6kbits/s speed=0.352x elapsed=0:00:11.75    \nframe=  300 fps= 24 q=-1.0 size=    1024KiB time=00:00:04.73 bitrate=1772.3kbits/s speed=0.381x elapsed=0:00:12.40    \n[mp4 @ 000001ce59019a80] Starting second pass: moving the moov atom to the beginning of the file\n[out#0/mp4 @ 000001ce590aee80] video:1223KiB audio:0KiB subtitle:0KiB other streams:0KiB global headers:0KiB muxing overhead: 0.355868%\nframe=  300 fps= 24 q=-1.0 Lsize=    1227KiB time=00:00:04.96 bitrate=2023.6kbits/s speed=0.398x elapsed=0:00:12.47    \n[libx264 @ 000001ce5979ac00] frame I:2     Avg QP:35.62  size: 20446\n[libx264 @ 000001ce5979ac00] frame P:76    Avg QP:39.33  size:  6928\n[libx264 @ 000001ce5979ac00] frame B:222   Avg QP:42.58  size:  3080\n[libx264 @ 000001ce5979ac00] consecutive B-frames:  1.0%  0.0%  3.0% 96.0%\n[libx264 @ 000001ce5979ac00] mb I  I16..4: 13.4% 83.4%  3.2%\n[libx264 @ 000001ce5979ac00] mb P  I16..4:  3.4% 10.6%  0.1%  P16..4: 16.3%  1.0%  0.7%  0.0%  0.0%    skip:68.0%\n[libx264 @ 000001ce5979ac00] mb B  I16..4:  0.4%  1.0%  0.0%  B16..8: 17.3%  0.8%  0.0%  direct: 0.3%  skip:80.1%  L0:52.2% L1:46.8% BI: 0.9%\n[libx264 @ 000001ce5979ac00] 8x8 transform intra:75.4% inter:96.9%\n[libx264 @ 000001ce5979ac00] direct mvs  spatial:95.5% temporal:4.5%\n[libx264 @ 000001ce5979ac00] coded y,uvDC,uvAC intra: 16.0% 39.2% 6.4% inter: 1.0% 3.4% 0.0%\n[libx264 @ 000001ce5979ac00] i16 v,h,dc,p: 29% 29%  7% 34%\n[libx264 @ 000001ce5979ac00] i8 v,h,dc,ddl,ddr,vr,hd,vl,hu: 19% 12% 39%  4%  6%  5%  7%  3%  5%\n[libx264 @ 000001ce5979ac00] i4 v,h,dc,ddl,ddr,vr,hd,vl,hu: 14% 13% 22% 13% 12%  7%  9%  5%  5%\n[libx264 @ 000001ce5979ac00] i8c dc,h,v,p: 74% 12%  9%  4%\n[libx264 @ 000001ce5979ac00] Weighted P-Frames: Y:0.0% UV:0.0%\n[libx264 @ 000001ce5979ac00] ref P L0: 48.0%  7.0% 23.7%  9.5% 11.9%\n[libx264 @ 000001ce5979ac00] ref B L0: 69.2% 20.0%  8.6%  2.2%\n[libx264 @ 000001ce5979ac00] ref B L1: 90.4%  9.6%\n[libx264 @ 000001ce5979ac00] kb/s:2001.77\n",
  "seconds": 14.417131423950195,
  "probe_out": {}
}